HIERARCHY
ROOT Hips
{
    OFFSET 0.000000 0.000000 0.000000
    CHANNELS 6 Xposition Yposition Zposition Zrotation Xrotation Yrotation
    JOINT Spine
    {
        OFFSET -0.000000 7.246840 0.000000
        CHANNELS 3 Zrotation Xrotation Yrotation
        JOINT Spine1
        {
            OFFSET -0.000000 20.289354 0.000000
            CHANNELS 3 Zrotation Xrotation Yrotation
            JOINT Neck
            {
                OFFSET -0.000000 20.206032 1.836912
                CHANNELS 3 Zrotation Xrotation Yrotation
                JOINT Head
                {
                    OFFSET -0.000000 12.372654 -1.767522
                    CHANNELS 3 Zrotation Xrotation Yrotation
                    End Site
                    {
                        OFFSET -0.000000 22.094025 0.000000
                    }
                }
            }
            JOINT LeftShoulder
            {
                OFFSET 3.465871 17.201674 -0.568930
                CHANNELS 3 Zrotation Xrotation Yrotation
                JOINT LeftArm
                {
                    OFFSET 14.070313 0.000000 0.000000
                    CHANNELS 3 Zrotation Xrotation Yrotation
                    JOINT LeftForeArm
                    {
                        OFFSET 26.549477 0.000000 0.000000
                        CHANNELS 3 Zrotation Xrotation Yrotation
                        JOINT LeftHand
                        {
                            OFFSET 18.880413 0.000000 0.000000
                            CHANNELS 3 Zrotation Xrotation Yrotation
                            End Site
                            {
                                OFFSET 13.256415 0.000000 0.000000
                            }
                        }
                    }
                }
            }
            JOINT RightShoulder
            {
                OFFSET -3.526370 17.201674 -0.568930
                CHANNELS 3 Zrotation Xrotation Yrotation
                JOINT RightArm
                {
                    OFFSET -14.070313 0.000000 0.000000
                    CHANNELS 3 Zrotation Xrotation Yrotation
                    JOINT RightForeArm
                    {
                        OFFSET -26.549477 0.000000 0.000000
                        CHANNELS 3 Zrotation Xrotation Yrotation
                        JOINT RightHand
                        {
                            OFFSET -18.880413 0.000000 0.000000
                            CHANNELS 3 Zrotation Xrotation Yrotation
                            End Site
                            {
                                OFFSET -13.256415 0.000000 0.000000
                            }
                        }
                    }
                }
            }
        }
    }
    JOINT LeftUpLeg
    {
        OFFSET 8.837609 0.000000 0.000000
        CHANNELS 3 Zrotation Xrotation Yrotation
        JOINT LeftLeg
        {
            OFFSET -0.000000 -41.345005 0.000000
            CHANNELS 3 Zrotation Xrotation Yrotation
            JOINT LeftFoot
            {
                OFFSET -0.000000 -35.500874 0.000000
                CHANNELS 3 Zrotation Xrotation Yrotation
                JOINT LeftToeBase
                {
                    OFFSET -0.000000 -5.744446 13.256415
                    CHANNELS 3 Zrotation Xrotation Yrotation
                    End Site
                    {
                        OFFSET -0.000000 0.000000 3.535044
                    }
                }
            }
        }
    }
    JOINT RightUpLeg
    {
        OFFSET -8.837609 0.000000 0.000000
        CHANNELS 3 Zrotation Xrotation Yrotation
        JOINT RightLeg
        {
            OFFSET -0.000000 -41.345005 0.000000
            CHANNELS 3 Zrotation Xrotation Yrotation
            JOINT RightFoot
            {
                OFFSET -0.000000 -35.500874 0.000000
                CHANNELS 3 Zrotation Xrotation Yrotation
                JOINT RightToeBase
                {
                    OFFSET -0.000000 -5.744446 13.256415
                    CHANNELS 3 Zrotation Xrotation Yrotation
                    End Site
                    {
                        OFFSET -0.000000 0.000000 3.535044
                    }
                }
            }
        }
    }
}
MOTION
Frames:    5
Frame Time:    0.010000
6.413640    83.131828    -13.475291    1.462982    3.561119    -0.878466    -0.035602    -10.516633    0.814853    -3.095256    -1.854170    0.768022    0.636808    33.102661    -2.006753    5.660218    -13.816259    -0.510864    19.981518    3.074293    6.942059    -29.256599    0.728956    -12.996456    2.012022    -3.113762    3.626546    -9.041817    -2.558734    -7.821864    -17.117886    0.475523    13.041821    11.645299    7.394825    8.538698    -0.695400    -2.461589    -6.616864    7.722273    -1.234156    18.625158    -2.064523    7.834300    -1.132953    -1.737083    -10.646406    -3.711885    7.873770    0.931598    -3.106530    -1.429365    -1.958876    2.024937    -8.117721    2.266207    2.882614    6.809201    -4.553631    2.197011    2.458324    -0.674617    -6.041267    -0.718688    -3.564322    1.341283    
6.369789    83.133049    -13.477256    1.469029    3.561369    -0.868743    -0.067903    -10.516327    0.798495    -3.063845    -1.864741    0.754934    0.627047    33.161011    -1.995136    5.683003    -13.844355    -0.492794    19.973734    3.089621    6.950160    -29.237127    0.687344    -13.003495    2.039883    -3.138318    3.657378    -9.051744    -2.577592    -7.902884    -17.142996    0.493195    13.036622    11.591901    7.315788    8.557852    -0.696258    -2.454668    -6.617818    7.701766    -1.232361    18.600979    -2.034094    7.821188    -1.139416    -1.755753    -10.622437    -3.657611    7.839264    0.917550    -3.175014    -1.450304    -1.971779    2.054762    -8.097268    2.277377    2.900352    6.810795    -4.581217    2.139596    2.438355    -0.655061    -6.000435    -0.707707    -3.593317    1.321237    
6.331196    83.136391    -13.477232    1.480633    3.555766    -0.861451    -0.086558    -10.514339    0.790555    -3.061316    -1.868647    0.748568    0.627481    33.191170    -1.976584    5.710474    -13.840076    -0.466256    19.991331    3.083049    6.938386    -29.325672    0.367699    -13.038364    2.115761    -2.957565    3.784550    -9.046176    -2.395980    -7.977545    -17.157927    0.474439    13.043733    11.559644    7.313505    8.547413    -0.710668    -2.432661    -6.631072    7.714766    -1.211652    18.564070    -2.019991    7.819166    -1.174007    -1.731535    -10.610537    -3.696017    7.806261    0.925362    -3.107934    -1.458987    -1.989298    2.067288    -8.086567    2.292239    2.891303    6.816394    -4.594624    2.166657    2.434081    -0.659866    -6.030669    -0.733981    -3.561740    1.369782    
6.289575    83.137604    -13.478788    1.487634    3.554587    -0.848925    -0.117233    -10.519302    0.777491    -3.032492    -1.866749    0.738888    0.619849    33.222816    -1.965885    5.722748    -13.836732    -0.453202    19.993484    3.102833    6.948699    -29.323660    0.379585    -13.057311    2.125138    -2.948811    3.783714    -9.008316    -2.389417    -7.987016    -17.170763    0.474940    13.025431    11.482838    7.361116    8.578284    -0.704429    -2.439637    -6.646000    7.757333    -1.216217    18.494740    -1.998629    7.804125    -1.157990    -1.733658    -10.582398    -3.688886    7.789629    0.912301    -3.125719    -1.450884    -1.970802    2.055570    -8.069259    2.301063    2.895367    6.821681    -4.608492    2.148791    2.427471    -0.646792    -6.011147    -0.719123    -3.582543    1.342380    
6.252642    83.140778    -13.477787    1.506939    3.546378    -0.846363    -0.152267    -10.522717    0.771900    -3.010459    -1.855041    0.737174    0.617338    33.218296    -1.962273    5.726305    -13.795049    -0.450939    19.997499    3.122941    6.962356    -29.332743    0.390512    -13.087521    2.120086    -2.927359    3.790262    -8.933210    -2.369150    -8.038789    -17.190845    0.462348    13.041221    11.451837    7.352209    8.539326    -0.714756    -2.415084    -6.667719    7.661155    -1.200601    18.603754    -1.995865    7.808333    -1.184680    -1.742067    -10.571609    -3.610826    7.818149    0.904795    -3.175994    -1.440616    -1.968956    2.041003    -8.067892    2.313129    2.925309    6.830474    -4.618094    2.099353    2.390780    -0.645175    -5.986469    -0.719941    -3.578039    1.343836    
